<svg xmlns="http://www.w3.org/2000/svg" xmlns:xlink="http://www.w3.org/1999/xlink" width="80" zoomAndPan="magnify" viewBox="0 0 60 74.999997" height="100" preserveAspectRatio="xMidYMid meet" version="1.0"><defs><g/><clipPath id="846c7d9cb6"><path d="M 15.109375 29 L 45 29 L 45 34 L 15.109375 34 Z M 15.109375 29 " clip-rule="nonzero"/></clipPath><clipPath id="151ec1e8d0"><path d="M 30 16.445312 L 43 16.445312 L 43 25 L 30 25 Z M 30 16.445312 " clip-rule="nonzero"/></clipPath><clipPath id="02c70d3893"><path d="M 16 38 L 43 38 L 43 47.945312 L 16 47.945312 Z M 16 38 " clip-rule="nonzero"/></clipPath><clipPath id="ddae1d8017"><path d="M 15.109375 34 L 45 34 L 45 38 L 15.109375 38 Z M 15.109375 34 " clip-rule="nonzero"/></clipPath><clipPath id="5865efcc30"><path d="M 43 17 L 46.609375 17 L 46.609375 23 L 43 23 Z M 43 17 " clip-rule="nonzero"/></clipPath></defs><g clip-path="url(#846c7d9cb6)"><path fill="#040606" d="M 15.164062 32.988281 C 15.183594 33.019531 15.214844 33.050781 15.277344 33.050781 L 44.199219 33.050781 C 44.257812 33.050781 44.292969 33.019531 44.308594 32.988281 C 44.328125 32.960938 44.347656 32.914062 44.320312 32.855469 L 42.96875 29.933594 C 42.914062 29.816406 42.792969 29.738281 42.660156 29.738281 L 35.914062 29.738281 L 35.914062 30.84375 L 37.597656 30.84375 C 37.90625 30.84375 38.160156 31.089844 38.160156 31.394531 C 38.160156 31.699219 37.90625 31.945312 37.597656 31.945312 L 21.878906 31.945312 C 21.570312 31.945312 21.316406 31.699219 21.316406 31.394531 C 21.316406 31.089844 21.570312 30.84375 21.878906 30.84375 L 23.5625 30.84375 L 23.5625 29.738281 L 16.8125 29.738281 C 16.683594 29.738281 16.5625 29.816406 16.503906 29.9375 L 15.152344 32.859375 C 15.128906 32.914062 15.144531 32.960938 15.164062 32.988281 " fill-opacity="1" fill-rule="nonzero"/></g><g clip-path="url(#151ec1e8d0)"><path fill="#040606" d="M 30.859375 18.707031 L 36.472656 18.707031 C 37.035156 18.707031 37.519531 18.945312 37.867188 19.453125 C 38.046875 19.71875 38.140625 20.03125 38.140625 20.351562 C 38.140625 21.023438 37.710938 21.632812 37.074219 21.863281 L 33.488281 23.152344 C 33.304688 23.21875 33.160156 23.351562 33.089844 23.535156 C 33.015625 23.71875 33.019531 23.925781 33.109375 24.101562 C 33.261719 24.394531 33.585938 24.566406 33.960938 24.433594 L 39.089844 22.585938 C 39.125 22.574219 39.164062 22.5625 39.203125 22.558594 L 42.648438 22.089844 L 42.648438 17.527344 L 35.894531 16.515625 C 35.59375 16.472656 35.289062 16.515625 35.003906 16.640625 L 30.859375 18.707031 " fill-opacity="1" fill-rule="nonzero"/></g><g clip-path="url(#02c70d3893)"><path fill="#040606" d="M 16.824219 47.394531 C 16.824219 47.695312 17.078125 47.945312 17.386719 47.945312 L 42.089844 47.945312 C 42.398438 47.945312 42.648438 47.695312 42.648438 47.394531 L 42.648438 38.566406 L 16.824219 38.566406 L 16.824219 47.394531 " fill-opacity="1" fill-rule="nonzero"/></g><g clip-path="url(#ddae1d8017)"><path fill="#040606" d="M 15.140625 37.464844 L 44.332031 37.464844 L 44.332031 34.136719 C 44.289062 34.140625 44.246094 34.152344 44.199219 34.152344 L 15.277344 34.152344 C 15.230469 34.152344 15.1875 34.140625 15.140625 34.136719 L 15.140625 37.464844 " fill-opacity="1" fill-rule="nonzero"/></g><path fill="#040606" d="M 24.683594 30.84375 L 34.789062 30.84375 L 34.789062 25.320312 L 34.34375 25.480469 C 34.136719 25.554688 33.929688 25.59375 33.722656 25.59375 C 33.035156 25.59375 32.414062 25.210938 32.105469 24.601562 C 31.871094 24.140625 31.851562 23.605469 32.046875 23.132812 C 32.238281 22.664062 32.625 22.296875 33.105469 22.128906 L 34.789062 21.519531 L 34.789062 19.808594 L 24.683594 19.808594 L 24.683594 30.84375 " fill-opacity="1" fill-rule="nonzero"/><g clip-path="url(#5865efcc30)"><path fill="#040606" d="M 43.773438 17.050781 L 43.773438 22.015625 C 43.773438 22.320312 44.023438 22.570312 44.332031 22.570312 L 46.019531 22.570312 C 46.328125 22.570312 46.578125 22.320312 46.578125 22.015625 L 46.578125 17.601562 C 46.578125 17.300781 46.328125 17.050781 46.019531 17.050781 L 43.773438 17.050781 " fill-opacity="1" fill-rule="nonzero"/></g><g fill="#363636" fill-opacity="1"><g transform="translate(16.962715, 56.968501)"><g><path d="M 0.328125 -4.03125 L 2.3125 -4.03125 C 2.757812 -4.03125 3.15625 -3.945312 3.5 -3.78125 C 3.84375 -3.613281 4.109375 -3.378906 4.296875 -3.078125 C 4.484375 -2.773438 4.578125 -2.421875 4.578125 -2.015625 C 4.578125 -1.597656 4.484375 -1.238281 4.296875 -0.9375 C 4.109375 -0.632812 3.84375 -0.398438 3.5 -0.234375 C 3.15625 -0.078125 2.757812 0 2.3125 0 L 0.328125 0 Z M 2.25 -1.0625 C 2.539062 -1.0625 2.773438 -1.144531 2.953125 -1.3125 C 3.128906 -1.476562 3.21875 -1.710938 3.21875 -2.015625 C 3.21875 -2.316406 3.128906 -2.550781 2.953125 -2.71875 C 2.773438 -2.882812 2.539062 -2.96875 2.25 -2.96875 L 1.6875 -2.96875 L 1.6875 -1.0625 Z M 2.25 -1.0625 "/></g></g></g><g fill="#363636" fill-opacity="1"><g transform="translate(21.705805, 56.968501)"><g><path d="M 3.671875 -1.03125 L 3.671875 0 L 0.328125 0 L 0.328125 -4.03125 L 3.59375 -4.03125 L 3.59375 -3 L 1.65625 -3 L 1.65625 -2.53125 L 3.359375 -2.53125 L 3.359375 -1.546875 L 1.65625 -1.546875 L 1.65625 -1.03125 Z M 3.671875 -1.03125 "/></g></g></g><g fill="#f7481d" fill-opacity="1"><g transform="translate(25.571128, 56.968501)"><g><path d="M 0.265625 -2.15625 L 1.984375 -2.15625 L 1.984375 -1.171875 L 0.265625 -1.171875 Z M 0.265625 -2.15625 "/></g></g></g><g fill="#363636" fill-opacity="1"><g transform="translate(27.811945, 56.968501)"><g><path d="M 1.828125 0.09375 C 1.492188 0.09375 1.164062 0.0546875 0.84375 -0.015625 C 0.53125 -0.0859375 0.273438 -0.191406 0.078125 -0.328125 L 0.515625 -1.3125 C 0.703125 -1.195312 0.914062 -1.101562 1.15625 -1.03125 C 1.394531 -0.96875 1.625 -0.9375 1.84375 -0.9375 C 2.03125 -0.9375 2.160156 -0.953125 2.234375 -0.984375 C 2.316406 -1.023438 2.359375 -1.082031 2.359375 -1.15625 C 2.359375 -1.238281 2.304688 -1.300781 2.203125 -1.34375 C 2.097656 -1.394531 1.925781 -1.441406 1.6875 -1.484375 C 1.375 -1.554688 1.113281 -1.628906 0.90625 -1.703125 C 0.695312 -1.773438 0.515625 -1.894531 0.359375 -2.0625 C 0.210938 -2.238281 0.140625 -2.472656 0.140625 -2.765625 C 0.140625 -3.015625 0.207031 -3.242188 0.34375 -3.453125 C 0.488281 -3.660156 0.703125 -3.820312 0.984375 -3.9375 C 1.265625 -4.050781 1.609375 -4.109375 2.015625 -4.109375 C 2.285156 -4.109375 2.550781 -4.078125 2.8125 -4.015625 C 3.082031 -3.960938 3.320312 -3.878906 3.53125 -3.765625 L 3.125 -2.78125 C 2.726562 -2.976562 2.351562 -3.078125 2 -3.078125 C 1.65625 -3.078125 1.484375 -2.992188 1.484375 -2.828125 C 1.484375 -2.742188 1.53125 -2.679688 1.625 -2.640625 C 1.726562 -2.609375 1.898438 -2.566406 2.140625 -2.515625 C 2.453125 -2.460938 2.710938 -2.394531 2.921875 -2.3125 C 3.128906 -2.238281 3.3125 -2.117188 3.46875 -1.953125 C 3.625 -1.785156 3.703125 -1.554688 3.703125 -1.265625 C 3.703125 -1.015625 3.628906 -0.785156 3.484375 -0.578125 C 3.347656 -0.367188 3.140625 -0.203125 2.859375 -0.078125 C 2.578125 0.0351562 2.234375 0.09375 1.828125 0.09375 Z M 1.828125 0.09375 "/></g></g></g><g fill="#363636" fill-opacity="1"><g transform="translate(31.584596, 56.968501)"><g><path d="M 2.4375 0.09375 C 2 0.09375 1.609375 0.00390625 1.265625 -0.171875 C 0.921875 -0.359375 0.648438 -0.609375 0.453125 -0.921875 C 0.265625 -1.242188 0.171875 -1.609375 0.171875 -2.015625 C 0.171875 -2.410156 0.265625 -2.769531 0.453125 -3.09375 C 0.648438 -3.414062 0.921875 -3.664062 1.265625 -3.84375 C 1.609375 -4.019531 2 -4.109375 2.4375 -4.109375 C 2.875 -4.109375 3.265625 -4.019531 3.609375 -3.84375 C 3.953125 -3.664062 4.21875 -3.414062 4.40625 -3.09375 C 4.601562 -2.769531 4.703125 -2.410156 4.703125 -2.015625 C 4.703125 -1.609375 4.601562 -1.242188 4.40625 -0.921875 C 4.21875 -0.609375 3.953125 -0.359375 3.609375 -0.171875 C 3.265625 0.00390625 2.875 0.09375 2.4375 0.09375 Z M 2.4375 -1 C 2.601562 -1 2.753906 -1.039062 2.890625 -1.125 C 3.023438 -1.207031 3.132812 -1.320312 3.21875 -1.46875 C 3.300781 -1.625 3.34375 -1.804688 3.34375 -2.015625 C 3.34375 -2.210938 3.300781 -2.382812 3.21875 -2.53125 C 3.132812 -2.6875 3.023438 -2.804688 2.890625 -2.890625 C 2.753906 -2.972656 2.601562 -3.015625 2.4375 -3.015625 C 2.269531 -3.015625 2.117188 -2.972656 1.984375 -2.890625 C 1.847656 -2.804688 1.738281 -2.6875 1.65625 -2.53125 C 1.570312 -2.382812 1.53125 -2.210938 1.53125 -2.015625 C 1.53125 -1.804688 1.570312 -1.625 1.65625 -1.46875 C 1.738281 -1.320312 1.847656 -1.207031 1.984375 -1.125 C 2.117188 -1.039062 2.269531 -1 2.4375 -1 Z M 2.4375 -1 "/></g></g></g><g fill="#363636" fill-opacity="1"><g transform="translate(36.454016, 56.968501)"><g><path d="M 1.6875 -3 L 1.6875 -2.3125 L 3.359375 -2.3125 L 3.359375 -1.28125 L 1.6875 -1.28125 L 1.6875 0 L 0.328125 0 L 0.328125 -4.03125 L 3.59375 -4.03125 L 3.59375 -3 Z M 1.6875 -3 "/></g></g></g><g fill="#363636" fill-opacity="1"><g transform="translate(40.152018, 56.968501)"><g><path d="M 1.203125 -2.96875 L 0.015625 -2.96875 L 0.015625 -4.03125 L 3.734375 -4.03125 L 3.734375 -2.96875 L 2.5625 -2.96875 L 2.5625 0 L 1.203125 0 Z M 1.203125 -2.96875 "/></g></g></g></svg>